<svg width="32" height="21" viewBox="0 0 32 21" fill="none" xmlns="http://www.w3.org/2000/svg">
<path d="M15.6475 14.6175C16.9038 13.5615 17.805 12.1447 18.2287 10.5591C18.6525 8.97361 18.5783 7.29611 18.0164 5.75415C17.4544 4.21218 16.4318 2.88037 15.0872 1.93931C13.7426 0.998254 12.1412 0.4935 10.5 0.4935C8.85882 0.4935 7.25735 0.998254 5.91278 1.93931C4.5682 2.88037 3.54559 4.21218 2.98362 5.75415C2.42165 7.29611 2.34751 8.97361 2.77127 10.5591C3.19503 12.1447 4.09618 13.5615 5.3525 14.6175C3.39072 15.5045 1.69064 16.8822 0.416247 18.6175C0.180867 18.9382 0.0825439 19.3393 0.142907 19.7326C0.20327 20.1258 0.417376 20.479 0.738122 20.7144C1.05887 20.9497 1.45998 21.0481 1.85322 20.9877C2.24646 20.9273 2.59962 20.7132 2.835 20.3925C3.71717 19.1877 4.87095 18.2077 6.20271 17.5323C7.53448 16.8568 9.00672 16.5048 10.5 16.5048C11.9933 16.5048 13.4655 16.8568 14.7973 17.5323C16.129 18.2077 17.2828 19.1877 18.165 20.3925C18.4004 20.7134 18.7536 20.9277 19.147 20.9881C19.5403 21.0486 19.9416 20.9504 20.2625 20.715C20.5834 20.4796 20.7977 20.1264 20.8582 19.733C20.9186 19.3397 20.8204 18.9384 20.585 18.6175C19.3098 16.8824 17.6094 15.5048 15.6475 14.6175ZM5.5 8.49999C5.5 7.51108 5.79324 6.54438 6.34265 5.72214C6.89206 4.89989 7.67295 4.25903 8.58658 3.88059C9.50021 3.50215 10.5055 3.40314 11.4754 3.59606C12.4454 3.78899 13.3363 4.26519 14.0355 4.96446C14.7348 5.66372 15.211 6.55463 15.4039 7.52454C15.5968 8.49444 15.4978 9.49978 15.1194 10.4134C14.741 11.327 14.1001 12.1079 13.2778 12.6573C12.4556 13.2067 11.4889 13.5 10.5 13.5C9.17391 13.5 7.90214 12.9732 6.96446 12.0355C6.02678 11.0978 5.5 9.82607 5.5 8.49999ZM31.2625 20.7087C31.1037 20.8254 30.9235 20.9097 30.7321 20.9567C30.5407 21.0037 30.342 21.0125 30.1472 20.9827C29.9524 20.9529 29.7654 20.8849 29.5969 20.7828C29.4283 20.6807 29.2816 20.5464 29.165 20.3875C28.2806 19.185 27.1264 18.2067 25.7951 17.5316C24.4639 16.8564 22.9927 16.503 21.5 16.5C21.1022 16.5 20.7206 16.342 20.4393 16.0606C20.158 15.7793 20 15.3978 20 15C20 14.6022 20.158 14.2206 20.4393 13.9393C20.7206 13.658 21.1022 13.5 21.5 13.5C22.2107 13.4987 22.9129 13.346 23.5599 13.0519C24.2069 12.7579 24.7837 12.3293 25.252 11.7947C25.7203 11.2602 26.0693 10.6319 26.2757 9.95185C26.482 9.2718 26.541 8.55556 26.4488 7.8509C26.3565 7.14624 26.1151 6.46935 25.7406 5.86534C25.3661 5.26133 24.8672 4.74409 24.2771 4.34811C23.687 3.95212 23.0192 3.68648 22.3183 3.5689C21.6174 3.45132 20.8995 3.48451 20.2125 3.66624C20.0206 3.72175 19.8196 3.73838 19.6212 3.71515C19.4228 3.69191 19.231 3.62928 19.0571 3.53094C18.8833 3.43259 18.7308 3.3005 18.6086 3.14243C18.4865 2.98436 18.3972 2.80348 18.3459 2.61042C18.2946 2.41736 18.2824 2.216 18.31 2.01816C18.3376 1.82031 18.4044 1.62997 18.5066 1.45831C18.6087 1.28664 18.7441 1.1371 18.9048 1.01848C19.0656 0.899848 19.2484 0.814516 19.4425 0.767489C21.1993 0.301988 23.0623 0.448562 24.7247 1.18308C26.3871 1.91759 27.7499 3.19627 28.5886 4.8086C29.4274 6.42093 29.6922 8.2708 29.3393 10.0537C28.9865 11.8365 28.0371 13.4461 26.6475 14.6175C28.6093 15.5045 30.3093 16.8822 31.5837 18.6175C31.8174 18.9378 31.9148 19.3375 31.8546 19.7294C31.7944 20.1213 31.5815 20.4734 31.2625 20.7087Z" fill="#546890"/>
</svg>
