<svg width="26" height="30" viewBox="0 0 26 30" fill="none" xmlns="http://www.w3.org/2000/svg">
<path d="M13 0.126678L25.88 7.56401V22.436L13 29.8733L0.119995 22.436V7.56401L13 0.126678ZM13 3.20668L2.78666 9.10268V20.8973L13 26.7933L23.2133 20.8973V9.10268L13 3.20668ZM13 11C11.9391 11 10.9217 11.4214 10.1716 12.1716C9.42142 12.9217 8.99999 13.9391 8.99999 15C8.99999 16.0609 9.42142 17.0783 10.1716 17.8284C10.9217 18.5786 11.9391 19 13 19C14.0609 19 15.0783 18.5786 15.8284 17.8284C16.5786 17.0783 17 16.0609 17 15C17 13.9391 16.5786 12.9217 15.8284 12.1716C15.0783 11.4214 14.0609 11 13 11ZM6.33333 15C6.33333 13.2319 7.03571 11.5362 8.28595 10.286C9.53619 9.03572 11.2319 8.33334 13 8.33334C14.7681 8.33334 16.4638 9.03572 17.714 10.286C18.9643 11.5362 19.6667 13.2319 19.6667 15C19.6667 16.7681 18.9643 18.4638 17.714 19.7141C16.4638 20.9643 14.7681 21.6667 13 21.6667C11.2319 21.6667 9.53619 20.9643 8.28595 19.7141C7.03571 18.4638 6.33333 16.7681 6.33333 15Z" fill="#3D5F77"/>
</svg>
