<svg width="182" height="40" viewBox="0 0 182 40" fill="none" xmlns="http://www.w3.org/2000/svg">
<path d="M22.8536 31C22.4336 30.32 21.9336 29.59 21.3536 28.81C20.7936 28.01 20.1736 27.22 19.4936 26.44C18.8336 25.64 18.1436 24.88 17.4236 24.16C16.7036 23.42 15.9836 22.77 15.2636 22.21V31H10.5836V10.21H15.2636V18.07C16.4836 16.79 17.7036 15.46 18.9236 14.08C20.1636 12.68 21.3136 11.39 22.3736 10.21H27.9236C26.5036 11.89 25.0736 13.51 23.6336 15.07C22.2136 16.63 20.7136 18.2 19.1336 19.78C20.7936 21.16 22.3936 22.8 23.9336 24.7C25.4936 26.6 26.9836 28.7 28.4036 31H22.8536ZM35.3284 27.88C35.7684 27.88 36.1884 27.87 36.5884 27.85C36.9884 27.83 37.3084 27.8 37.5484 27.76V24.37C37.3684 24.33 37.0984 24.29 36.7384 24.25C36.3784 24.21 36.0484 24.19 35.7484 24.19C35.3284 24.19 34.9284 24.22 34.5484 24.28C34.1884 24.32 33.8684 24.41 33.5884 24.55C33.3084 24.69 33.0884 24.88 32.9284 25.12C32.7684 25.36 32.6884 25.66 32.6884 26.02C32.6884 26.72 32.9184 27.21 33.3784 27.49C33.8584 27.75 34.5084 27.88 35.3284 27.88ZM34.9684 14.8C36.2884 14.8 37.3884 14.95 38.2684 15.25C39.1484 15.55 39.8484 15.98 40.3684 16.54C40.9084 17.1 41.2884 17.78 41.5084 18.58C41.7284 19.38 41.8384 20.27 41.8384 21.25V30.55C41.1984 30.69 40.3084 30.85 39.1684 31.03C38.0284 31.23 36.6484 31.33 35.0284 31.33C34.0084 31.33 33.0784 31.24 32.2384 31.06C31.4184 30.88 30.7084 30.59 30.1084 30.19C29.5084 29.77 29.0484 29.23 28.7284 28.57C28.4084 27.91 28.2484 27.1 28.2484 26.14C28.2484 25.22 28.4284 24.44 28.7884 23.8C29.1684 23.16 29.6684 22.65 30.2884 22.27C30.9084 21.89 31.6184 21.62 32.4184 21.46C33.2184 21.28 34.0484 21.19 34.9084 21.19C35.4884 21.19 35.9984 21.22 36.4384 21.28C36.8984 21.32 37.2684 21.38 37.5484 21.46V21.04C37.5484 20.28 37.3184 19.67 36.8584 19.21C36.3984 18.75 35.5984 18.52 34.4584 18.52C33.6984 18.52 32.9484 18.58 32.2084 18.7C31.4684 18.8 30.8284 18.95 30.2884 19.15L29.7184 15.55C29.9784 15.47 30.2984 15.39 30.6784 15.31C31.0784 15.21 31.5084 15.13 31.9684 15.07C32.4284 14.99 32.9084 14.93 33.4084 14.89C33.9284 14.83 34.4484 14.8 34.9684 14.8ZM44.6805 15.76C45.4405 15.54 46.4205 15.34 47.6205 15.16C48.8205 14.96 50.0805 14.86 51.4005 14.86C52.7405 14.86 53.8505 15.04 54.7305 15.4C55.6305 15.74 56.3405 16.23 56.8605 16.87C57.3805 17.51 57.7505 18.27 57.9705 19.15C58.1905 20.03 58.3005 21.01 58.3005 22.09V31H53.8305V22.63C53.8305 21.19 53.6405 20.17 53.2605 19.57C52.8805 18.97 52.1705 18.67 51.1305 18.67C50.8105 18.67 50.4705 18.69 50.1105 18.73C49.7505 18.75 49.4305 18.78 49.1505 18.82V31H44.6805V15.76ZM71.2565 22.99C71.2565 20.11 70.1965 18.67 68.0765 18.67C67.6165 18.67 67.1565 18.73 66.6965 18.85C66.2565 18.97 65.8965 19.12 65.6165 19.3V27.43C65.8365 27.47 66.1165 27.51 66.4565 27.55C66.7965 27.57 67.1665 27.58 67.5665 27.58C68.7865 27.58 69.7065 27.16 70.3265 26.32C70.9465 25.48 71.2565 24.37 71.2565 22.99ZM75.8165 23.11C75.8165 24.37 75.6265 25.51 75.2465 26.53C74.8865 27.55 74.3565 28.42 73.6565 29.14C72.9565 29.86 72.0965 30.42 71.0765 30.82C70.0565 31.2 68.8965 31.39 67.5965 31.39C67.0565 31.39 66.4865 31.36 65.8865 31.3C65.3065 31.26 64.7265 31.2 64.1465 31.12C63.5865 31.04 63.0465 30.95 62.5265 30.85C62.0065 30.73 61.5465 30.61 61.1465 30.49V8.44L65.6165 7.72V15.58C66.1165 15.36 66.6365 15.19 67.1765 15.07C67.7165 14.95 68.2965 14.89 68.9165 14.89C70.0365 14.89 71.0265 15.09 71.8865 15.49C72.7465 15.87 73.4665 16.42 74.0465 17.14C74.6265 17.86 75.0665 18.73 75.3665 19.75C75.6665 20.75 75.8165 21.87 75.8165 23.11ZM84.082 27.88C84.522 27.88 84.942 27.87 85.342 27.85C85.742 27.83 86.062 27.8 86.302 27.76V24.37C86.122 24.33 85.852 24.29 85.492 24.25C85.132 24.21 84.802 24.19 84.502 24.19C84.082 24.19 83.682 24.22 83.302 24.28C82.942 24.32 82.622 24.41 82.342 24.55C82.062 24.69 81.842 24.88 81.682 25.12C81.522 25.36 81.442 25.66 81.442 26.02C81.442 26.72 81.672 27.21 82.132 27.49C82.612 27.75 83.262 27.88 84.082 27.88ZM83.722 14.8C85.042 14.8 86.142 14.95 87.022 15.25C87.902 15.55 88.602 15.98 89.122 16.54C89.662 17.1 90.042 17.78 90.262 18.58C90.482 19.38 90.592 20.27 90.592 21.25V30.55C89.952 30.69 89.062 30.85 87.922 31.03C86.782 31.23 85.402 31.33 83.782 31.33C82.762 31.33 81.832 31.24 80.992 31.06C80.172 30.88 79.462 30.59 78.862 30.19C78.262 29.77 77.802 29.23 77.482 28.57C77.162 27.91 77.002 27.1 77.002 26.14C77.002 25.22 77.182 24.44 77.542 23.8C77.922 23.16 78.422 22.65 79.042 22.27C79.662 21.89 80.372 21.62 81.172 21.46C81.972 21.28 82.802 21.19 83.662 21.19C84.242 21.19 84.752 21.22 85.192 21.28C85.652 21.32 86.022 21.38 86.302 21.46V21.04C86.302 20.28 86.072 19.67 85.612 19.21C85.152 18.75 84.352 18.52 83.212 18.52C82.452 18.52 81.702 18.58 80.962 18.7C80.222 18.8 79.582 18.95 79.042 19.15L78.472 15.55C78.732 15.47 79.052 15.39 79.432 15.31C79.832 15.21 80.262 15.13 80.722 15.07C81.182 14.99 81.662 14.93 82.162 14.89C82.682 14.83 83.202 14.8 83.722 14.8ZM93.434 15.76C94.194 15.54 95.174 15.34 96.374 15.16C97.574 14.96 98.834 14.86 100.154 14.86C101.494 14.86 102.604 15.04 103.484 15.4C104.384 15.74 105.094 16.23 105.614 16.87C106.134 17.51 106.504 18.27 106.724 19.15C106.944 20.03 107.054 21.01 107.054 22.09V31H102.584V22.63C102.584 21.19 102.394 20.17 102.014 19.57C101.634 18.97 100.924 18.67 99.884 18.67C99.564 18.67 99.224 18.69 98.864 18.73C98.504 18.75 98.184 18.78 97.904 18.82V31H93.434V15.76Z" fill="#2F2F2F"/>
<path d="M113.7 11C114.673 11 115.42 11.1867 115.94 11.56C116.467 11.9267 116.73 12.4767 116.73 13.21C116.73 13.61 116.657 13.9533 116.51 14.24C116.37 14.52 116.163 14.75 115.89 14.93C115.623 15.1033 115.297 15.23 114.91 15.31C114.523 15.39 114.087 15.43 113.6 15.43H112.83V18H111.86V11.17C112.133 11.1033 112.437 11.06 112.77 11.04C113.11 11.0133 113.42 11 113.7 11ZM113.78 11.85C113.367 11.85 113.05 11.86 112.83 11.88V14.6H113.56C113.893 14.6 114.193 14.58 114.46 14.54C114.727 14.4933 114.95 14.42 115.13 14.32C115.317 14.2133 115.46 14.07 115.56 13.89C115.66 13.71 115.71 13.48 115.71 13.2C115.71 12.9333 115.657 12.7133 115.55 12.54C115.45 12.3667 115.31 12.23 115.13 12.13C114.957 12.0233 114.753 11.95 114.52 11.91C114.287 11.87 114.04 11.85 113.78 11.85ZM119.804 12.69C119.884 12.69 119.974 12.6967 120.074 12.71C120.181 12.7167 120.284 12.73 120.384 12.75C120.484 12.7633 120.574 12.78 120.654 12.8C120.741 12.8133 120.804 12.8267 120.844 12.84L120.684 13.65C120.611 13.6233 120.487 13.5933 120.314 13.56C120.147 13.52 119.931 13.5 119.664 13.5C119.491 13.5 119.317 13.52 119.144 13.56C118.977 13.5933 118.867 13.6167 118.814 13.63V18H117.884V13.02C118.104 12.94 118.377 12.8667 118.704 12.8C119.031 12.7267 119.397 12.69 119.804 12.69ZM126.331 15.4C126.331 15.8133 126.271 16.1867 126.151 16.52C126.031 16.8533 125.861 17.14 125.641 17.38C125.428 17.62 125.171 17.8067 124.871 17.94C124.571 18.0667 124.245 18.13 123.891 18.13C123.538 18.13 123.211 18.0667 122.911 17.94C122.611 17.8067 122.351 17.62 122.131 17.38C121.918 17.14 121.751 16.8533 121.631 16.52C121.511 16.1867 121.451 15.8133 121.451 15.4C121.451 14.9933 121.511 14.6233 121.631 14.29C121.751 13.95 121.918 13.66 122.131 13.42C122.351 13.18 122.611 12.9967 122.911 12.87C123.211 12.7367 123.538 12.67 123.891 12.67C124.245 12.67 124.571 12.7367 124.871 12.87C125.171 12.9967 125.428 13.18 125.641 13.42C125.861 13.66 126.031 13.95 126.151 14.29C126.271 14.6233 126.331 14.9933 126.331 15.4ZM125.361 15.4C125.361 14.8133 125.228 14.35 124.961 14.01C124.701 13.6633 124.345 13.49 123.891 13.49C123.438 13.49 123.078 13.6633 122.811 14.01C122.551 14.35 122.421 14.8133 122.421 15.4C122.421 15.9867 122.551 16.4533 122.811 16.8C123.078 17.14 123.438 17.31 123.891 17.31C124.345 17.31 124.701 17.14 124.961 16.8C125.228 16.4533 125.361 15.9867 125.361 15.4ZM126.79 19.87C126.71 19.87 126.607 19.86 126.48 19.84C126.353 19.82 126.247 19.7933 126.16 19.76L126.28 19C126.347 19.02 126.423 19.0367 126.51 19.05C126.597 19.0633 126.677 19.07 126.75 19.07C127.07 19.07 127.297 18.97 127.43 18.77C127.57 18.5767 127.64 18.29 127.64 17.91V12.8H128.57V17.9C128.57 18.5667 128.417 19.06 128.11 19.38C127.81 19.7067 127.37 19.87 126.79 19.87ZM128.1 11.86C127.933 11.86 127.79 11.8067 127.67 11.7C127.557 11.5867 127.5 11.4367 127.5 11.25C127.5 11.0633 127.557 10.9167 127.67 10.81C127.79 10.6967 127.933 10.64 128.1 10.64C128.267 10.64 128.407 10.6967 128.52 10.81C128.64 10.9167 128.7 11.0633 128.7 11.25C128.7 11.4367 128.64 11.5867 128.52 11.7C128.407 11.8067 128.267 11.86 128.1 11.86ZM129.879 15.41C129.879 14.95 129.946 14.55 130.079 14.21C130.212 13.8633 130.389 13.5767 130.609 13.35C130.829 13.1233 131.082 12.9533 131.369 12.84C131.656 12.7267 131.949 12.67 132.249 12.67C132.949 12.67 133.486 12.89 133.859 13.33C134.232 13.7633 134.419 14.4267 134.419 15.32C134.419 15.36 134.419 15.4133 134.419 15.48C134.419 15.54 134.416 15.5967 134.409 15.65H130.849C130.889 16.19 131.046 16.6 131.319 16.88C131.592 17.16 132.019 17.3 132.599 17.3C132.926 17.3 133.199 17.2733 133.419 17.22C133.646 17.16 133.816 17.1033 133.929 17.05L134.059 17.83C133.946 17.89 133.746 17.9533 133.459 18.02C133.179 18.0867 132.859 18.12 132.499 18.12C132.046 18.12 131.652 18.0533 131.319 17.92C130.992 17.78 130.722 17.59 130.509 17.35C130.296 17.11 130.136 16.8267 130.029 16.5C129.929 16.1667 129.879 15.8033 129.879 15.41ZM133.449 14.9C133.456 14.48 133.349 14.1367 133.129 13.87C132.916 13.5967 132.619 13.46 132.239 13.46C132.026 13.46 131.836 13.5033 131.669 13.59C131.509 13.67 131.372 13.7767 131.259 13.91C131.146 14.0433 131.056 14.1967 130.989 14.37C130.929 14.5433 130.889 14.72 130.869 14.9H133.449ZM138.015 18.12C137.595 18.12 137.225 18.0533 136.905 17.92C136.592 17.7867 136.325 17.6 136.105 17.36C135.892 17.12 135.732 16.8367 135.625 16.51C135.518 16.1767 135.465 15.81 135.465 15.41C135.465 15.01 135.522 14.6433 135.635 14.31C135.755 13.9767 135.922 13.69 136.135 13.45C136.348 13.2033 136.608 13.0133 136.915 12.88C137.228 12.74 137.575 12.67 137.955 12.67C138.188 12.67 138.422 12.69 138.655 12.73C138.888 12.77 139.112 12.8333 139.325 12.92L139.115 13.71C138.975 13.6433 138.812 13.59 138.625 13.55C138.445 13.51 138.252 13.49 138.045 13.49C137.525 13.49 137.125 13.6533 136.845 13.98C136.572 14.3067 136.435 14.7833 136.435 15.41C136.435 15.69 136.465 15.9467 136.525 16.18C136.592 16.4133 136.692 16.6133 136.825 16.78C136.965 16.9467 137.142 17.0767 137.355 17.17C137.568 17.2567 137.828 17.3 138.135 17.3C138.382 17.3 138.605 17.2767 138.805 17.23C139.005 17.1833 139.162 17.1333 139.275 17.08L139.405 17.86C139.352 17.8933 139.275 17.9267 139.175 17.96C139.075 17.9867 138.962 18.01 138.835 18.03C138.708 18.0567 138.572 18.0767 138.425 18.09C138.285 18.11 138.148 18.12 138.015 18.12ZM141.274 12.8H143.244V13.58H141.274V15.98C141.274 16.24 141.294 16.4567 141.334 16.63C141.374 16.7967 141.434 16.93 141.514 17.03C141.594 17.1233 141.694 17.19 141.814 17.23C141.934 17.27 142.074 17.29 142.234 17.29C142.514 17.29 142.737 17.26 142.904 17.2C143.077 17.1333 143.197 17.0867 143.264 17.06L143.444 17.83C143.35 17.8767 143.187 17.9333 142.954 18C142.72 18.0733 142.454 18.11 142.154 18.11C141.8 18.11 141.507 18.0667 141.274 17.98C141.047 17.8867 140.864 17.75 140.724 17.57C140.584 17.39 140.484 17.17 140.424 16.91C140.37 16.6433 140.344 16.3367 140.344 15.99V11.35L141.274 11.19V12.8Z" fill="#575757"/>
<path d="M114.97 30.04C114.903 29.88 114.813 29.6767 114.7 29.43C114.593 29.1833 114.477 28.9167 114.35 28.63C114.223 28.3433 114.087 28.05 113.94 27.75C113.8 27.4433 113.667 27.1567 113.54 26.89C113.413 26.6167 113.293 26.3733 113.18 26.16C113.073 25.9467 112.987 25.7833 112.92 25.67C112.847 26.4567 112.787 27.31 112.74 28.23C112.693 29.1433 112.653 30.0667 112.62 31H111.67C111.697 30.4 111.727 29.7967 111.76 29.19C111.793 28.5767 111.83 27.9767 111.87 27.39C111.917 26.7967 111.963 26.22 112.01 25.66C112.063 25.1 112.12 24.57 112.18 24.07H113.03C113.21 24.3633 113.403 24.71 113.61 25.11C113.817 25.51 114.023 25.93 114.23 26.37C114.437 26.8033 114.637 27.24 114.83 27.68C115.023 28.1133 115.2 28.51 115.36 28.87C115.52 28.51 115.697 28.1133 115.89 27.68C116.083 27.24 116.283 26.8033 116.49 26.37C116.697 25.93 116.903 25.51 117.11 25.11C117.317 24.71 117.51 24.3633 117.69 24.07H118.54C118.767 26.3033 118.937 28.6133 119.05 31H118.1C118.067 30.0667 118.027 29.1433 117.98 28.23C117.933 27.31 117.873 26.4567 117.8 25.67C117.733 25.7833 117.643 25.9467 117.53 26.16C117.423 26.3733 117.307 26.6167 117.18 26.89C117.053 27.1567 116.917 27.4433 116.77 27.75C116.63 28.05 116.497 28.3433 116.37 28.63C116.243 28.9167 116.123 29.1833 116.01 29.43C115.903 29.6767 115.817 29.88 115.75 30.04H114.97ZM122.271 30.33C122.491 30.33 122.684 30.3267 122.851 30.32C123.024 30.3067 123.168 30.2867 123.281 30.26V28.71C123.214 28.6767 123.104 28.65 122.951 28.63C122.804 28.6033 122.624 28.59 122.411 28.59C122.271 28.59 122.121 28.6 121.961 28.62C121.808 28.64 121.664 28.6833 121.531 28.75C121.404 28.81 121.298 28.8967 121.211 29.01C121.124 29.1167 121.081 29.26 121.081 29.44C121.081 29.7733 121.188 30.0067 121.401 30.14C121.614 30.2667 121.904 30.33 122.271 30.33ZM122.191 25.67C122.564 25.67 122.878 25.72 123.131 25.82C123.391 25.9133 123.598 26.05 123.751 26.23C123.911 26.4033 124.024 26.6133 124.091 26.86C124.158 27.1 124.191 27.3667 124.191 27.66V30.91C124.111 30.9233 123.998 30.9433 123.851 30.97C123.711 30.99 123.551 31.01 123.371 31.03C123.191 31.05 122.994 31.0667 122.781 31.08C122.574 31.1 122.368 31.11 122.161 31.11C121.868 31.11 121.598 31.08 121.351 31.02C121.104 30.96 120.891 30.8667 120.711 30.74C120.531 30.6067 120.391 30.4333 120.291 30.22C120.191 30.0067 120.141 29.75 120.141 29.45C120.141 29.1633 120.198 28.9167 120.311 28.71C120.431 28.5033 120.591 28.3367 120.791 28.21C120.991 28.0833 121.224 27.99 121.491 27.93C121.758 27.87 122.038 27.84 122.331 27.84C122.424 27.84 122.521 27.8467 122.621 27.86C122.721 27.8667 122.814 27.88 122.901 27.9C122.994 27.9133 123.074 27.9267 123.141 27.94C123.208 27.9533 123.254 27.9633 123.281 27.97V27.71C123.281 27.5567 123.264 27.4067 123.231 27.26C123.198 27.1067 123.138 26.9733 123.051 26.86C122.964 26.74 122.844 26.6467 122.691 26.58C122.544 26.5067 122.351 26.47 122.111 26.47C121.804 26.47 121.534 26.4933 121.301 26.54C121.074 26.58 120.904 26.6233 120.791 26.67L120.681 25.9C120.801 25.8467 121.001 25.7967 121.281 25.75C121.561 25.6967 121.864 25.67 122.191 25.67ZM125.736 25.95C125.949 25.8967 126.232 25.84 126.586 25.78C126.939 25.72 127.346 25.69 127.806 25.69C128.219 25.69 128.562 25.75 128.836 25.87C129.109 25.9833 129.326 26.1467 129.486 26.36C129.652 26.5667 129.769 26.8167 129.836 27.11C129.902 27.4033 129.936 27.7267 129.936 28.08V31H129.006V28.28C129.006 27.96 128.982 27.6867 128.936 27.46C128.896 27.2333 128.826 27.05 128.726 26.91C128.626 26.77 128.492 26.67 128.326 26.61C128.159 26.5433 127.952 26.51 127.706 26.51C127.606 26.51 127.502 26.5133 127.396 26.52C127.289 26.5267 127.186 26.5367 127.086 26.55C126.992 26.5567 126.906 26.5667 126.826 26.58C126.752 26.5933 126.699 26.6033 126.666 26.61V31H125.736V25.95ZM133.238 30.33C133.458 30.33 133.651 30.3267 133.818 30.32C133.991 30.3067 134.134 30.2867 134.248 30.26V28.71C134.181 28.6767 134.071 28.65 133.918 28.63C133.771 28.6033 133.591 28.59 133.378 28.59C133.238 28.59 133.088 28.6 132.928 28.62C132.774 28.64 132.631 28.6833 132.498 28.75C132.371 28.81 132.264 28.8967 132.178 29.01C132.091 29.1167 132.048 29.26 132.048 29.44C132.048 29.7733 132.154 30.0067 132.368 30.14C132.581 30.2667 132.871 30.33 133.238 30.33ZM133.158 25.67C133.531 25.67 133.844 25.72 134.098 25.82C134.358 25.9133 134.564 26.05 134.718 26.23C134.878 26.4033 134.991 26.6133 135.058 26.86C135.124 27.1 135.158 27.3667 135.158 27.66V30.91C135.078 30.9233 134.964 30.9433 134.818 30.97C134.678 30.99 134.518 31.01 134.338 31.03C134.158 31.05 133.961 31.0667 133.748 31.08C133.541 31.1 133.334 31.11 133.128 31.11C132.834 31.11 132.564 31.08 132.318 31.02C132.071 30.96 131.858 30.8667 131.678 30.74C131.498 30.6067 131.358 30.4333 131.258 30.22C131.158 30.0067 131.108 29.75 131.108 29.45C131.108 29.1633 131.164 28.9167 131.278 28.71C131.398 28.5033 131.558 28.3367 131.758 28.21C131.958 28.0833 132.191 27.99 132.458 27.93C132.724 27.87 133.004 27.84 133.298 27.84C133.391 27.84 133.488 27.8467 133.588 27.86C133.688 27.8667 133.781 27.88 133.868 27.9C133.961 27.9133 134.041 27.9267 134.108 27.94C134.174 27.9533 134.221 27.9633 134.248 27.97V27.71C134.248 27.5567 134.231 27.4067 134.198 27.26C134.164 27.1067 134.104 26.9733 134.018 26.86C133.931 26.74 133.811 26.6467 133.658 26.58C133.511 26.5067 133.318 26.47 133.078 26.47C132.771 26.47 132.501 26.4933 132.268 26.54C132.041 26.58 131.871 26.6233 131.758 26.67L131.648 25.9C131.768 25.8467 131.968 25.7967 132.248 25.75C132.528 25.6967 132.831 25.67 133.158 25.67ZM139.962 30.48C139.882 30.5333 139.726 30.6033 139.492 30.69C139.266 30.77 138.999 30.81 138.692 30.81C138.379 30.81 138.082 30.76 137.802 30.66C137.529 30.56 137.289 30.4067 137.082 30.2C136.876 29.9867 136.712 29.7233 136.592 29.41C136.472 29.0967 136.412 28.7233 136.412 28.29C136.412 27.91 136.469 27.5633 136.582 27.25C136.696 26.93 136.859 26.6567 137.072 26.43C137.292 26.1967 137.559 26.0167 137.872 25.89C138.186 25.7567 138.539 25.69 138.932 25.69C139.366 25.69 139.742 25.7233 140.062 25.79C140.389 25.85 140.662 25.9067 140.882 25.96V30.6C140.882 31.4 140.676 31.98 140.262 32.34C139.849 32.7 139.222 32.88 138.382 32.88C138.056 32.88 137.746 32.8533 137.452 32.8C137.166 32.7467 136.916 32.6833 136.702 32.61L136.872 31.8C137.059 31.8733 137.286 31.9367 137.552 31.99C137.826 32.05 138.109 32.08 138.402 32.08C138.956 32.08 139.352 31.97 139.592 31.75C139.839 31.53 139.962 31.18 139.962 30.7V30.48ZM139.952 26.62C139.859 26.5933 139.732 26.57 139.572 26.55C139.419 26.5233 139.209 26.51 138.942 26.51C138.442 26.51 138.056 26.6733 137.782 27C137.516 27.3267 137.382 27.76 137.382 28.3C137.382 28.6 137.419 28.8567 137.492 29.07C137.572 29.2833 137.676 29.46 137.802 29.6C137.936 29.74 138.086 29.8433 138.252 29.91C138.426 29.9767 138.602 30.01 138.782 30.01C139.029 30.01 139.256 29.9767 139.462 29.91C139.669 29.8367 139.832 29.7533 139.952 29.66V26.62ZM142.194 28.41C142.194 27.95 142.26 27.55 142.394 27.21C142.527 26.8633 142.704 26.5767 142.924 26.35C143.144 26.1233 143.397 25.9533 143.684 25.84C143.97 25.7267 144.264 25.67 144.564 25.67C145.264 25.67 145.8 25.89 146.174 26.33C146.547 26.7633 146.734 27.4267 146.734 28.32C146.734 28.36 146.734 28.4133 146.734 28.48C146.734 28.54 146.73 28.5967 146.724 28.65H143.164C143.204 29.19 143.36 29.6 143.634 29.88C143.907 30.16 144.334 30.3 144.914 30.3C145.24 30.3 145.514 30.2733 145.734 30.22C145.96 30.16 146.13 30.1033 146.244 30.05L146.374 30.83C146.26 30.89 146.06 30.9533 145.774 31.02C145.494 31.0867 145.174 31.12 144.814 31.12C144.36 31.12 143.967 31.0533 143.634 30.92C143.307 30.78 143.037 30.59 142.824 30.35C142.61 30.11 142.45 29.8267 142.344 29.5C142.244 29.1667 142.194 28.8033 142.194 28.41ZM145.764 27.9C145.77 27.48 145.664 27.1367 145.444 26.87C145.23 26.5967 144.934 26.46 144.554 26.46C144.34 26.46 144.15 26.5033 143.984 26.59C143.824 26.67 143.687 26.7767 143.574 26.91C143.46 27.0433 143.37 27.1967 143.304 27.37C143.244 27.5433 143.204 27.72 143.184 27.9H145.764ZM148.07 25.95C148.283 25.8967 148.563 25.84 148.91 25.78C149.263 25.72 149.67 25.69 150.13 25.69C150.463 25.69 150.743 25.7367 150.97 25.83C151.196 25.9167 151.386 26.0467 151.54 26.22C151.586 26.1867 151.66 26.14 151.76 26.08C151.86 26.02 151.983 25.9633 152.13 25.91C152.276 25.85 152.44 25.8 152.62 25.76C152.8 25.7133 152.993 25.69 153.2 25.69C153.6 25.69 153.926 25.75 154.18 25.87C154.433 25.9833 154.63 26.1467 154.77 26.36C154.916 26.5733 155.013 26.8267 155.06 27.12C155.113 27.4133 155.14 27.7333 155.14 28.08V31H154.21V28.28C154.21 27.9733 154.193 27.71 154.16 27.49C154.133 27.27 154.076 27.0867 153.99 26.94C153.91 26.7933 153.796 26.6867 153.65 26.62C153.51 26.5467 153.326 26.51 153.1 26.51C152.786 26.51 152.526 26.5533 152.32 26.64C152.12 26.72 151.983 26.7933 151.91 26.86C151.963 27.0333 152.003 27.2233 152.03 27.43C152.056 27.6367 152.07 27.8533 152.07 28.08V31H151.14V28.28C151.14 27.9733 151.123 27.71 151.09 27.49C151.056 27.27 150.996 27.0867 150.91 26.94C150.83 26.7933 150.716 26.6867 150.57 26.62C150.43 26.5467 150.25 26.51 150.03 26.51C149.936 26.51 149.836 26.5133 149.73 26.52C149.623 26.5267 149.52 26.5367 149.42 26.55C149.326 26.5567 149.24 26.5667 149.16 26.58C149.08 26.5933 149.026 26.6033 149 26.61V31H148.07V25.95ZM156.393 28.41C156.393 27.95 156.459 27.55 156.593 27.21C156.726 26.8633 156.903 26.5767 157.123 26.35C157.343 26.1233 157.596 25.9533 157.883 25.84C158.169 25.7267 158.463 25.67 158.763 25.67C159.463 25.67 159.999 25.89 160.373 26.33C160.746 26.7633 160.933 27.4267 160.933 28.32C160.933 28.36 160.933 28.4133 160.933 28.48C160.933 28.54 160.929 28.5967 160.923 28.65H157.363C157.403 29.19 157.559 29.6 157.833 29.88C158.106 30.16 158.533 30.3 159.113 30.3C159.439 30.3 159.713 30.2733 159.933 30.22C160.159 30.16 160.329 30.1033 160.443 30.05L160.573 30.83C160.459 30.89 160.259 30.9533 159.973 31.02C159.693 31.0867 159.373 31.12 159.013 31.12C158.559 31.12 158.166 31.0533 157.833 30.92C157.506 30.78 157.236 30.59 157.023 30.35C156.809 30.11 156.649 29.8267 156.543 29.5C156.443 29.1667 156.393 28.8033 156.393 28.41ZM159.963 27.9C159.969 27.48 159.863 27.1367 159.643 26.87C159.429 26.5967 159.133 26.46 158.753 26.46C158.539 26.46 158.349 26.5033 158.183 26.59C158.023 26.67 157.886 26.7767 157.773 26.91C157.659 27.0433 157.569 27.1967 157.503 27.37C157.443 27.5433 157.403 27.72 157.383 27.9H159.963ZM162.269 25.95C162.482 25.8967 162.765 25.84 163.119 25.78C163.472 25.72 163.879 25.69 164.339 25.69C164.752 25.69 165.095 25.75 165.369 25.87C165.642 25.9833 165.859 26.1467 166.019 26.36C166.185 26.5667 166.302 26.8167 166.369 27.11C166.435 27.4033 166.469 27.7267 166.469 28.08V31H165.539V28.28C165.539 27.96 165.515 27.6867 165.469 27.46C165.429 27.2333 165.359 27.05 165.259 26.91C165.159 26.77 165.025 26.67 164.859 26.61C164.692 26.5433 164.485 26.51 164.239 26.51C164.139 26.51 164.035 26.5133 163.929 26.52C163.822 26.5267 163.719 26.5367 163.619 26.55C163.525 26.5567 163.439 26.5667 163.359 26.58C163.285 26.5933 163.232 26.6033 163.199 26.61V31H162.269V25.95ZM168.881 25.8H170.851V26.58H168.881V28.98C168.881 29.24 168.901 29.4567 168.941 29.63C168.981 29.7967 169.041 29.93 169.121 30.03C169.201 30.1233 169.301 30.19 169.421 30.23C169.541 30.27 169.681 30.29 169.841 30.29C170.121 30.29 170.344 30.26 170.511 30.2C170.684 30.1333 170.804 30.0867 170.871 30.06L171.051 30.83C170.958 30.8767 170.794 30.9333 170.561 31C170.328 31.0733 170.061 31.11 169.761 31.11C169.408 31.11 169.114 31.0667 168.881 30.98C168.654 30.8867 168.471 30.75 168.331 30.57C168.191 30.39 168.091 30.17 168.031 29.91C167.978 29.6433 167.951 29.3367 167.951 28.99V24.35L168.881 24.19V25.8Z" fill="#575757"/>
<rect x="10" y="10" width="5" height="21" fill="#638AD6"/>
</svg>
